# xmcd
#
# Track frame offsets:
#	150
#	12175
#	27445
#	38392
#	52697
#	63295
#	77347
#	89890
#	101600
#	115035
#
# Disc length: 1721 seconds
#
# Revision: 0
# Processed by: cddbd v1.4PL0 Copyright (c) Steve Scherf et al.
# Submitted via: dBpowerAMP V4.0
#
DISCID=6906b70a
DTITLE=Ronnie Milsap - Pure Love
DYEAR=1900
DGENRE=
TTITLE0=My Love Is Deep My Love Is Wide
TTITLE1=Amazing Love
TTITLE2=Pure Love
TTITLE3=Four Walls
TTITLE4=Steets of Gold
TTITLE5=Love The Second Time Around
TTITLE6=Please Don't Tell Me How The Story Ends
TTITLE7=All My Roads Lead Back To You
TTITLE8=Behind Closed Doors
TTITLE9=Blue Ridge Mountains Turnin' Green
EXTD=\n\n                                                                               Les
EXTT0=
EXTT1=
EXTT2=
EXTT3=
EXTT4=
EXTT5=
EXTT6=
EXTT7=
EXTT8=
EXTT9=
PLAYORDER=
